# xmcd
#
# Track frame offsets: 
#        150
#        17108
#        37559
#        55444
#        73464
#        103021
#        126071
#        143784
#        160630
#        181508
#        200947
#
# Disc length: 3027 seconds
#
# Revision: 0
# Processed by: cddbd v1.5.2PL0 Copyright (c) Steve Scherf et al.
# Submitted via: ExactAudioCopy v0.95b3
#
DISCID=960bd10b
DTITLE=Saint Jude - Diary of a soul fiend
DYEAR=2009
DGENRE=Blues
TTITLE0=Soul on fire
TTITLE1=Garden of Eden
TTITLE2=Little queen
TTITLE3=Down this road
TTITLE4=Down and out
TTITLE5=Pleased to meet you
TTITLE6=Southern belle
TTITLE7=Rivers and streams
TTITLE8=Angel
TTITLE9=Parallel life
TTITLE10=Sweet Melody
EXTD=
EXTT0=
EXTT1=
EXTT2=
EXTT3=
EXTT4=
EXTT5=
EXTT6=
EXTT7=
EXTT8=
EXTT9=
EXTT10=
PLAYORDER=
